<svg version="1.1" id="Layer_1" xmlns="http://www.w3.org/2000/svg" xmlns:xlink="http://www.w3.org/1999/xlink" x="0px" y="0px"
	 width="100%" viewBox="0 0 381 381" enable-background="new 0 0 381 381" xml:space="preserve">
<path fill="#FDFDFD" opacity="1.000000" stroke="none" 
	d="
M66.000000,382.000000 
	C65.250000,382.000000 64.500000,382.000000 63.664482,381.724182 
	C63.205349,380.904266 62.906536,380.285217 62.447350,379.826843 
	C42.724007,360.136139 22.991865,340.454193 3.220015,320.812256 
	C2.712203,320.307800 1.750186,320.260498 1.000000,320.000000 
	C1.000000,319.250000 1.000000,318.500000 1.276498,317.662537 
	C3.025746,316.240997 4.560519,314.968872 5.962318,313.564026 
	C66.771370,252.622284 127.569435,191.669586 188.358871,130.708282 
	C189.141876,129.923080 189.796997,129.010361 190.496506,128.175461 
	C171.112076,108.708466 152.027161,89.448914 132.820816,70.311218 
	C127.095200,64.606079 128.820648,63.698742 121.992477,70.521492 
	C103.851059,88.648499 85.719254,106.785133 67.574570,124.908875 
	C66.432968,126.049156 65.213623,127.111603 63.670353,128.544647 
	C62.356907,127.089958 61.304096,125.815430 60.140621,124.651527 
	C41.656704,106.160759 23.169664,87.673050 4.632800,69.235458 
	C3.651513,68.259422 2.221251,67.734779 1.000000,67.000000 
	C1.000000,65.933563 1.000000,64.867119 1.271117,63.696793 
	C22.233194,43.376072 42.928455,23.163628 63.582436,2.909094 
	C63.971508,2.527543 63.871704,1.647472 64.000000,1.000000 
	C64.444443,1.000000 64.888885,1.000000 65.380089,1.277243 
	C66.046982,2.329548 66.599197,3.172615 67.297150,3.869769 
	C87.093781,23.643658 106.903404,43.404541 126.725334,63.153072 
	C127.149292,63.575455 127.742348,63.828129 128.315170,64.197830 
	C144.029846,48.479549 159.592545,32.955124 175.101837,17.377508 
	C180.469437,11.986260 185.704437,6.462973 191.000000,1.000000 
	C191.000000,1.000000 191.500000,1.000000 191.718750,1.344558 
	C212.788071,22.591995 233.638672,43.494873 255.366135,65.276817 
	C275.595093,44.626606 295.185822,24.647375 314.728027,4.620813 
	C315.700714,3.624038 316.252319,2.216349 317.000000,0.999995 
	C317.444427,1.000000 317.888885,1.000000 318.381470,1.277777 
	C318.832214,2.080297 319.181305,2.658518 319.645020,3.122096 
	C339.549103,23.020500 359.456787,42.915329 379.406158,62.768272 
	C380.045837,63.404861 381.125458,63.599384 382.000000,64.000000 
	C382.000000,64.444443 382.000000,64.888885 381.722565,65.380829 
	C380.807251,65.951569 380.119751,66.425087 379.538635,67.005203 
	C359.865051,86.646278 340.199432,106.295326 320.545685,125.956230 
	C319.861877,126.640266 319.310944,127.457146 318.659912,128.259155 
	C319.181091,128.939301 319.526764,129.506424 319.980927,129.966446 
	C339.626251,149.866821 359.271820,169.767029 378.971863,189.613159 
	C379.703949,190.350677 380.978333,190.549911 382.000000,191.000000 
	C382.000000,191.444443 382.000000,191.888885 381.722412,192.381180 
	C380.680084,193.060471 379.857361,193.633942 379.158936,194.331818 
	C359.606049,213.868484 340.063293,233.415283 320.534088,252.975632 
	C319.876434,253.634369 319.376465,254.450577 318.864227,255.114075 
	C339.716034,276.387207 360.340210,297.428131 381.775513,319.296570 
	C360.488953,340.225281 339.244476,361.112640 318.000000,382.000000 
	C318.000000,382.000000 317.500000,382.000000 317.240143,381.656891 
	C296.279510,360.595093 275.578705,339.876404 253.639145,317.917877 
	C275.458344,297.071533 297.109802,276.385468 318.242340,256.195129 
	C296.258667,234.072922 275.407928,213.090790 254.503647,192.054779 
	C254.084930,192.437195 253.577988,192.864334 253.111191,193.331589 
	C191.275558,255.228302 129.440414,317.125519 67.638268,379.055634 
	C66.875053,379.820404 66.536674,381.009155 66.000000,382.000000 
M253.962738,190.480011 
	C254.939377,189.875717 256.076202,189.432251 256.868652,188.643005 
	C269.029358,176.531265 281.148956,164.378220 293.270172,152.226883 
	C301.241577,144.235687 309.200348,136.231857 316.923706,128.475784 
	C295.818146,107.376762 274.913208,86.478333 254.909012,66.480339 
	C234.311890,86.996170 213.356750,107.868622 192.178360,128.963425 
	C212.372757,149.080185 232.911789,169.540253 253.962738,190.480011 
z"/>
<path fill="#000000" opacity="1.000000" stroke="none" 
	d="
M66.468658,382.000000 
	C66.536674,381.009155 66.875053,379.820404 67.638268,379.055634 
	C129.440414,317.125519 191.275558,255.228302 253.111191,193.331589 
	C253.577988,192.864334 254.084930,192.437195 254.503647,192.054779 
	C275.407928,213.090790 296.258667,234.072922 318.242340,256.195129 
	C297.109802,276.385468 275.458344,297.071533 253.639145,317.917877 
	C275.578705,339.876404 296.279510,360.595093 316.990143,381.656891 
	C233.645767,382.000000 150.291550,382.000000 66.468658,382.000000 
z"/>
<path fill="#000000" opacity="1.000000" stroke="none" 
	d="
M1.000000,67.468658 
	C2.221251,67.734779 3.651513,68.259422 4.632800,69.235458 
	C23.169664,87.673050 41.656704,106.160759 60.140621,124.651527 
	C61.304096,125.815430 62.356907,127.089958 63.670353,128.544647 
	C65.213623,127.111603 66.432968,126.049156 67.574570,124.908875 
	C85.719254,106.785133 103.851059,88.648499 121.992477,70.521492 
	C128.820648,63.698742 127.095200,64.606079 132.820816,70.311218 
	C152.027161,89.448914 171.112076,108.708466 190.496506,128.175461 
	C189.796997,129.010361 189.141876,129.923080 188.358871,130.708282 
	C127.569435,191.669586 66.771370,252.622284 5.962318,313.564026 
	C4.560519,314.968872 3.025746,316.240997 1.276498,317.287537 
	C1.000000,233.979111 1.000000,150.958206 1.000000,67.468658 
z"/>
<path fill="#010101" opacity="1.000000" stroke="none" 
	d="
M318.468628,382.000000 
	C339.244476,361.112640 360.488953,340.225281 381.775513,319.296570 
	C360.340210,297.428131 339.716034,276.387207 318.864227,255.114075 
	C319.376465,254.450577 319.876434,253.634369 320.534088,252.975632 
	C340.063293,233.415283 359.606049,213.868484 379.158936,194.331818 
	C379.857361,193.633942 380.680084,193.060471 381.722412,192.714508 
	C382.000000,255.890884 382.000000,318.781769 382.000000,382.000000 
	C360.980225,382.000000 339.958771,382.000000 318.468628,382.000000 
z"/>
<path fill="#010101" opacity="1.000000" stroke="none" 
	d="
M382.000000,190.531342 
	C380.978333,190.549911 379.703949,190.350677 378.971863,189.613159 
	C359.271820,169.767029 339.626251,149.866821 319.980927,129.966446 
	C319.526764,129.506424 319.181091,128.939301 318.659912,128.259155 
	C319.310944,127.457146 319.861877,126.640266 320.545685,125.956230 
	C340.199432,106.295326 359.865051,86.646278 379.538635,67.005203 
	C380.119751,66.425087 380.807251,65.951569 381.722565,65.714172 
	C382.000000,107.354225 382.000000,148.708450 382.000000,190.531342 
z"/>
<path fill="#010101" opacity="1.000000" stroke="none" 
	d="
M316.531342,0.999995 
	C316.252319,2.216349 315.700714,3.624038 314.728027,4.620813 
	C295.185822,24.647375 275.595093,44.626606 255.366135,65.276817 
	C233.638672,43.494873 212.788071,22.591995 191.968750,1.344558 
	C233.354233,1.000000 274.708466,1.000000 316.531342,0.999995 
z"/>
<path fill="#000000" opacity="1.000000" stroke="none" 
	d="
M190.531342,1.000000 
	C185.704437,6.462973 180.469437,11.986260 175.101837,17.377508 
	C159.592545,32.955124 144.029846,48.479549 128.315170,64.197830 
	C127.742348,63.828129 127.149292,63.575455 126.725334,63.153072 
	C106.903404,43.404541 87.093781,23.643658 67.297150,3.869769 
	C66.599197,3.172615 66.046982,2.329548 65.713425,1.277243 
	C107.354225,1.000000 148.708450,1.000000 190.531342,1.000000 
z"/>
<path fill="#010101" opacity="1.000000" stroke="none" 
	d="
M382.000000,63.531342 
	C381.125458,63.599384 380.045837,63.404861 379.406158,62.768272 
	C359.456787,42.915329 339.549103,23.020500 319.645020,3.122096 
	C319.181305,2.658518 318.832214,2.080297 318.714844,1.277777 
	C339.926819,1.000000 360.853638,1.000000 382.000000,1.000000 
	C382.000000,21.687044 382.000000,42.374863 382.000000,63.531342 
z"/>
<path fill="#000000" opacity="1.000000" stroke="none" 
	d="
M63.531342,1.000000 
	C63.871704,1.647472 63.971508,2.527543 63.582436,2.909094 
	C42.928455,23.163628 22.233194,43.376072 1.271117,63.296448 
	C1.000000,42.405926 1.000000,21.811853 1.000000,1.000000 
	C21.687052,1.000000 42.374866,1.000000 63.531342,1.000000 
z"/>
<path fill="#000000" opacity="1.000000" stroke="none" 
	d="
M1.000000,320.468658 
	C1.750186,320.260498 2.712203,320.307800 3.220015,320.812256 
	C22.991865,340.454193 42.724007,360.136139 62.447350,379.826843 
	C62.906536,380.285217 63.205349,380.904266 63.289482,381.724182 
	C42.406513,382.000000 21.813025,382.000000 1.000000,382.000000 
	C1.000000,361.646301 1.000000,341.291809 1.000000,320.468658 
z"/>
<path fill="#000000" opacity="1.000000" stroke="none" 
	d="
M253.706772,190.240173 
	C232.911789,169.540253 212.372757,149.080185 192.178360,128.963425 
	C213.356750,107.868622 234.311890,86.996170 254.909012,66.480339 
	C274.913208,86.478333 295.818146,107.376762 316.923706,128.475784 
	C309.200348,136.231857 301.241577,144.235687 293.270172,152.226883 
	C281.148956,164.378220 269.029358,176.531265 256.868652,188.643005 
	C256.076202,189.432251 254.939377,189.875717 253.706772,190.240173 
z"/>
</svg>